<?xml version="1.0" encoding="UTF-8" standalone="no"?>
<!-- Created with Inkscape (http://www.inkscape.org/) -->
<svg xmlns:inkscape="http://www.inkscape.org/namespaces/inkscape" xmlns:rdf="http://www.w3.org/1999/02/22-rdf-syntax-ns#" xmlns="http://www.w3.org/2000/svg" xmlns:xlink="http://www.w3.org/1999/xlink" xmlns:ns1="http://sozi.baierouge.fr" xmlns:cc="http://creativecommons.org/ns#" xmlns:sodipodi="http://sodipodi.sourceforge.net/DTD/sodipodi-0.dtd" xmlns:dc="http://purl.org/dc/elements/1.1/" id="svg2" xml:space="preserve" viewBox="0 0 370.54 84.099" version="1.1" inkscape:version="0.91 r13725">
  <defs id="defs6">
    <linearGradient id="linearGradient24" y2="91.028" gradientUnits="userSpaceOnUse" x2="-3.2078" gradientTransform="matrix(-.08264 1.5978 1.5978 .08264 .030562 67.313)" y1="91.028" x1="-32.247">
      <stop id="stop26" style="stop-color:#52c482" offset="0"/>
      <stop id="stop28" style="stop-color:#acba44" offset="1"/>                                                                                                                                                    
    </linearGradient>
  </defs>
  <g id="g10" transform="matrix(1.25 0 0 -1.25 0 84.099)">
    <g id="g12">
      <g id="g14">
        <g id="g16">
          <g id="g22">
            <path id="path30" style="fill-rule:evenodd;fill:url(#linearGradient24)" d="m282.99 10.834c-14.99-3.574-37.49-6.484-67.52-8.723-45.12-3.519-87.41-2.64-126.88 2.641-18.344 2.453-34.449 5.414-48.317 8.883-10.718 2.718-22.507 6.371-35.363 10.957-6.238 2.242-6.531 4.906-0.879 8 4.11 2.293 10.403 4.425 18.879 6.398 4.215 0.961 13.656 2.375 28.32 4.242 15.415 2.453 29.282 6.133 41.602 11.039 17.652 7.043 31.734 11.204 42.238 12.481 14.188 1.652 28.055-0.586 41.602-6.719 21.121-9.547 36.48-16.187 46.082-19.918 17.492-6.828 31.973-11.066 43.437-12.723 11.149-1.597 19.52-4.05 25.121-7.359 2.825-1.652 4.532-3.144 5.118-4.48-1.492-1.332-5.973-2.907-13.438-4.719z" inkscape:connector-curvature="0"/>
          </g>
        </g>
      </g>
    </g>
  </g>
<metadata><rdf:RDF><cc:Work><dc:format>image/svg+xml</dc:format><dc:type rdf:resource="http://purl.org/dc/dcmitype/StillImage"/><cc:license rdf:resource="http://creativecommons.org/licenses/publicdomain/"/><dc:publisher><cc:Agent rdf:about="http://openclipart.org/"><dc:title>Openclipart</dc:title></cc:Agent></dc:publisher></cc:Work><cc:License rdf:about="http://creativecommons.org/licenses/publicdomain/"><cc:permits rdf:resource="http://creativecommons.org/ns#Reproduction"/><cc:permits rdf:resource="http://creativecommons.org/ns#Distribution"/><cc:permits rdf:resource="http://creativecommons.org/ns#DerivativeWorks"/></cc:License></rdf:RDF></metadata></svg>
